<?xml version="1.0" encoding="UTF-8" standalone="no"?>
<svg width="12px" height="11px" viewBox="0 0 12 11" version="1.1" xmlns="http://www.w3.org/2000/svg" xmlns:xlink="http://www.w3.org/1999/xlink">
    <!-- Generator: sketchtool 40.3 (33839) - http://www.bohemiancoding.com/sketch -->
    <title>1B3516EA-DDC5-490F-BD91-5D3B9E5FF36F</title>
    <desc>Created with sketchtool.</desc>
    <defs></defs>
    <g id="Assets" stroke="none" stroke-width="1" fill="none" fill-rule="evenodd">
        <g id="assets" transform="translate(-156.000000, -52.000000)" fill="#232323">
            <path d="M157.614686,56.9960807 L167.494215,56.9960807 C167.773552,56.9960807 168,57.2293686 168,57.4990003 C168,57.7767551 167.781919,58.0019199 167.494215,58.0019199 L157.612687,58.0019199 L161.795723,62.1849564 C161.982421,62.3716543 161.983868,62.6745887 161.797916,62.8605404 C161.617403,63.0410539 161.309495,63.0455103 161.122332,62.8583473 L156.110224,57.8462389 C156.014797,57.7508122 155.967768,57.6250183 155.969423,57.5 C155.967768,57.3749817 156.014797,57.2491878 156.110224,57.1537611 L161.122332,52.1416527 C161.309495,51.9544897 161.617403,51.9589461 161.797916,52.1394596 C161.983868,52.3254113 161.982421,52.6283457 161.795723,52.8150436 L157.614686,56.9960807 Z" id="back"></path>
        </g>
    </g>
</svg>
