<?xml version="1.0" encoding="UTF-8" standalone="no"?>
<svg width="16px" height="15px" viewBox="0 0 16 15" version="1.1" xmlns="http://www.w3.org/2000/svg" xmlns:xlink="http://www.w3.org/1999/xlink">
    <!-- Generator: sketchtool 40.3 (33839) - http://www.bohemiancoding.com/sketch -->
    <title>0AB40C45-6FAA-46BC-81FE-347EEA8712DD</title>
    <desc>Created with sketchtool.</desc>
    <defs></defs>
    <g id="Assets" stroke="none" stroke-width="1" fill="none" fill-rule="evenodd">
        <g id="assets" transform="translate(-84.000000, -50.000000)" fill="#008edb">
            <path d="M100,53.6486486 C100,53.0484459 99.8758,52.8378378 99.2512,52.8378378 L88.4902,52.8378378 L88.17,50.8108108 C88.1262,50.2189189 87.8302,50 87.2016,50 L84.8004,50 C84.2078,50 84,50.1986486 84,50.8108108 L84,51.2162162 C84,51.845 84.2078,52.027027 84.8004,52.027027 L86.289,52.027027 L87.6018,59.7297297 C87.7416,60.1513514 88.126,60.5202703 88.8022,60.5405405 L97.6064,60.5405405 C98.3068,60.5405405 98.635,60.3947973 98.8072,59.7297297 L100,53.6486486 L100,53.6486486 Z M97.1902,58.5135135 L89.2786,58.5135135 L88.6904,54.8648649 L97.8708,54.8648649 L97.1902,58.5135135 L97.1902,58.5135135 Z M89.2028,63.3783784 C89.2028,64.2743243 89.9188,65 90.8036,65 C91.688,65 92.4044,64.2743243 92.4044,63.3783784 C92.4044,62.4824324 91.688,61.7567568 90.8036,61.7567568 C89.9188,61.7567568 89.2028,62.4824324 89.2028,63.3783784 L89.2028,63.3783784 Z M94.405,63.3783784 C94.405,64.2743243 95.1214,65 96.0058,65 C96.8902,65 97.6066,64.2743243 97.6066,63.3783784 C97.6066,62.4824324 96.8902,61.7567568 96.0058,61.7567568 C95.1214,61.7567568 94.405,62.4824324 94.405,63.3783784 L94.405,63.3783784 Z" id="icon"></path>
        </g>
    </g>
</svg>
