<?xml version="1.0" encoding="UTF-8" standalone="no"?>
<svg width="12px" height="12px" viewBox="0 0 12 12" version="1.1" xmlns="http://www.w3.org/2000/svg" xmlns:xlink="http://www.w3.org/1999/xlink">
    <!-- Generator: sketchtool 40.3 (33839) - http://www.bohemiancoding.com/sketch -->
    <title>B71CD152-5187-4C6A-9343-48528C1F9199</title>
    <desc>Created with sketchtool.</desc>
    <defs></defs>
    <g id="Assets" stroke="none" stroke-width="1" fill="none" fill-rule="evenodd">
        <g id="assets" transform="translate(-124.000000, -51.000000)" fill="#8e989c">
            <path d="M131.425887,57.0000086 L135.703123,52.7227728 C136.099711,52.3261853 136.097506,51.6899565 135.703733,51.2961828 C135.307214,50.8996638 134.671253,50.902682 134.277143,51.2967922 L129.999907,55.5740279 L125.722671,51.2967922 C125.328561,50.902682 124.6926,50.8996638 124.296081,51.2961828 C123.902307,51.6899565 123.900103,52.3261853 124.29669,52.7227728 L128.573926,57.0000086 L124.29669,61.2772443 C123.900103,61.6738319 123.902307,62.3100606 124.296081,62.7038343 C124.6926,63.1003533 125.328561,63.0973351 125.722671,62.7032249 L129.999907,58.4259892 L134.277143,62.7032249 C134.671253,63.0973351 135.307214,63.1003533 135.703733,62.7038343 C136.097506,62.3100606 136.099711,61.6738319 135.703123,61.2772443 L131.425887,57.0000086 Z" id="close"></path>
        </g>
    </g>
</svg>
