<?xml version="1.0" encoding="UTF-8" standalone="no"?>
<svg width="14px" height="14px" viewBox="0 0 14 14" version="1.1" xmlns="http://www.w3.org/2000/svg" xmlns:xlink="http://www.w3.org/1999/xlink">
    <!-- Generator: sketchtool 40.3 (33839) - http://www.bohemiancoding.com/sketch -->
    <title>7B56919F-7D3B-4F37-B86B-E0A6A1B0FDE6</title>
    <desc>Created with sketchtool.</desc>
    <defs></defs>
    <g id="Assets" stroke="none" stroke-width="1" fill="none" fill-rule="evenodd">
        <g id="assets" transform="translate(-50.000000, -51.000000)" fill="#8e989c">
            <path d="M64,63.923077 C64,64.2147451 63.8934302,64.4671464 63.6802881,64.6802885 C63.467146,64.8934305 63.2147452,65 62.9230771,65 C62.6201906,65 62.3677899,64.8934305 62.1658652,64.6802885 L59.2800479,61.8028846 C58.276037,62.4984009 57.1570573,62.8461538 55.9230771,62.8461538 C55.12099,62.8461538 54.3539703,62.6905064 53.6219951,62.3792067 C52.89002,62.0679071 52.2590172,61.6472383 51.7289667,61.1171875 C51.1989154,60.5871367 50.7782469,59.9561335 50.4669472,59.2241587 C50.1556476,58.4921838 50,57.7251643 50,56.9230769 C50,56.1209896 50.1556476,55.35397 50.4669472,54.6219952 C50.7782469,53.8900204 51.1989154,53.2590171 51.7289667,52.7289663 C52.2590172,52.1989156 52.89002,51.7782468 53.6219951,51.4669471 C54.3539703,51.1556475 55.12099,51 55.9230771,51 C56.7251642,51 57.492184,51.1556475 58.2241583,51.4669471 C58.9561334,51.7782468 59.587137,52.1989156 60.1171875,52.7289663 C60.647238,53.2590171 61.0679074,53.8900204 61.379207,54.6219952 C61.6905066,55.35397 61.8461542,56.1209896 61.8461542,56.9230769 C61.8461542,58.1570575 61.4984013,59.2760367 60.8028848,60.280048 L63.6887021,63.1658654 C63.8962346,63.3733984 64,63.6257998 64,63.923077 Z M59.6923076,56.9230769 C59.6923076,55.8854115 59.3235214,54.9978002 58.5859375,54.2602163 C57.8483536,53.5226325 56.9607422,53.1538462 55.9230771,53.1538462 C54.8854111,53.1538462 53.9977997,53.5226325 53.2602167,54.2602163 C52.5226329,54.9978002 52.1538457,55.8854115 52.1538457,56.9230769 C52.1538457,57.9607424 52.5226329,58.8483537 53.2602167,59.5859375 C53.9977997,60.3235213 54.8854111,60.6923077 55.9230771,60.6923077 C56.9607422,60.6923077 57.8483536,60.3235213 58.5859375,59.5859375 C59.3235214,58.8483537 59.6923076,57.9607424 59.6923076,56.9230769 Z" id="icon"></path>
        </g>
    </g>
</svg>
